<svg role="img" viewBox="0 0 24 24" xmlns="http://www.w3.org/2000/svg">
    <symbol id="github">
        <title>GitHub icon</title>
        <path d="M12 .297c-6.63 0-12 5.373-12 12 0 5.303 3.438 9.8 8.205 11.385.6.113.82-.258.82-.577 0-.285-.01-1.04-.015-2.04-3.338.724-4.042-1.61-4.042-1.61C4.422 18.07 3.633 17.7 3.633 17.7c-1.087-.744.084-.729.084-.729 1.205.084 1.838 1.236 1.838 1.236 1.07 1.835 2.809 1.305 3.495.998.108-.776.417-1.305.76-1.605-2.665-.3-5.466-1.332-5.466-5.93 0-1.31.465-2.38 1.235-3.22-.135-.303-.54-1.523.105-3.176 0 0 1.005-.322 3.3 1.23.96-.267 1.98-.399 3-.405 1.02.006 2.04.138 3 .405 2.28-1.552 3.285-1.23 3.285-1.23.645 1.653.24 2.873.12 3.176.765.84 1.23 1.91 1.23 3.22 0 4.61-2.805 5.625-5.475 5.92.42.36.81 1.096.81 2.22 0 1.606-.015 2.896-.015 3.286 0 .315.21.69.825.57C20.565 22.092 24 17.592 24 12.297c0-6.627-5.373-12-12-12"/>
    </symbol>

    <symbol id="telegram">
        <title>Telegram icon</title>
        <path d="M11.944 0A12 12 0 0 0 0 12a12 12 0 0 0 12 12 12 12 0 0 0 12-12A12 12 0 0 0 12 0a12 12 0 0 0-.056 0zm4.962 7.224c.1-.002.321.023.465.14a.506.506 0 0 1 .171.325c.016.093.036.306.02.472-.18 1.898-.962 6.502-1.36 8.627-.168.9-.499 1.201-.82 1.23-.696.065-1.225-.46-1.9-.902-1.056-.693-1.653-1.124-2.678-1.8-1.185-.78-.417-1.21.258-1.91.177-.184 3.247-2.977 3.307-3.23.007-.032.014-.15-.056-.212s-.174-.041-.249-.024c-.106.024-1.793 1.14-5.061 3.345-.48.33-.913.49-1.302.48-.428-.008-1.252-.241-1.865-.44-.752-.245-1.349-.374-1.297-.789.027-.216.325-.437.893-.663 3.498-1.524 5.83-2.529 6.998-3.014 3.332-1.386 4.025-1.627 4.476-1.635z"/>
    </symbol>

    <symbol id="skype">
        <title>Skype icon</title>
        <path id="icon" d="M12.069 18.874c-4.023 0-5.82-1.979-5.82-3.464 0-.765.561-1.296 1.333-1.296 1.723 0 1.273 2.477 4.487 2.477 1.641 0 2.55-.895 2.55-1.811 0-.551-.269-1.16-1.354-1.429l-3.576-.895c-2.88-.724-3.403-2.286-3.403-3.751 0-3.047 2.861-4.191 5.549-4.191 2.471 0 5.393 1.373 5.393 3.199 0 .784-.688 1.24-1.453 1.24-1.469 0-1.198-2.037-4.164-2.037-1.469 0-2.292.664-2.292 1.617s1.153 1.258 2.157 1.487l2.637.587c2.891.649 3.624 2.346 3.624 3.944 0 2.476-1.902 4.324-5.722 4.324m11.084-4.882l-.029.135-.044-.24c.015.045.044.074.059.12.12-.675.181-1.363.181-2.052 0-1.529-.301-3.012-.898-4.42-.569-1.348-1.395-2.562-2.427-3.596-1.049-1.033-2.247-1.856-3.595-2.426-1.318-.631-2.801-.93-4.328-.93-.72 0-1.444.07-2.143.204l.119.06-.239-.033.119-.025C8.91.274 7.829 0 6.731 0c-1.789 0-3.47.698-4.736 1.967C.729 3.235.032 4.923.032 6.716c0 1.143.292 2.265.844 3.258l.02-.124.041.239-.06-.115c-.114.645-.172 1.299-.172 1.955 0 1.53.3 3.017.884 4.416.568 1.362 1.378 2.576 2.427 3.609 1.034 1.05 2.247 1.857 3.595 2.442 1.394.6 2.877.898 4.404.898.659 0 1.334-.06 1.977-.179l-.119-.062.24.046-.135.03c1.002.569 2.126.871 3.294.871 1.783 0 3.459-.69 4.733-1.963 1.259-1.259 1.962-2.951 1.962-4.749 0-1.138-.299-2.262-.853-3.266"/>
    </symbol>

    <symbol id="vk">
        <title>VK icon</title>
        <path d="M15.684 0H8.316C1.592 0 0 1.592 0 8.316v7.368C0 22.408 1.592 24 8.316 24h7.368C22.408 24 24 22.408 24 15.684V8.316C24 1.592 22.391 0 15.684 0zm3.692 17.123h-1.744c-.66 0-.864-.525-2.05-1.727-1.033-1-1.49-1.135-1.744-1.135-.356 0-.458.102-.458.593v1.575c0 .424-.135.678-1.253.678-1.846 0-3.896-1.118-5.335-3.202C4.624 10.857 4.03 8.57 4.03 8.096c0-.254.102-.491.593-.491h1.744c.44 0 .61.203.78.677.863 2.49 2.303 4.675 2.896 4.675.22 0 .322-.102.322-.66V9.721c-.068-1.186-.695-1.287-.695-1.71 0-.204.17-.407.44-.407h2.744c.373 0 .508.203.508.643v3.473c0 .372.17.508.271.508.22 0 .407-.136.813-.542 1.254-1.406 2.151-3.574 2.151-3.574.119-.254.322-.491.763-.491h1.744c.525 0 .644.27.525.643-.22 1.017-2.354 4.031-2.354 4.031-.186.305-.254.44 0 .78.186.254.796.779 1.203 1.253.745.847 1.32 1.558 1.473 2.05.17.49-.085.744-.576.744z"/>
    </symbol>

    <symbol id="instagram">
        <title>Instagram</title>
        <path d="M12 0C8.74 0 8.333.015 7.053.072 5.775.132 4.905.333 4.14.63c-.789.306-1.459.717-2.126 1.384S.935 3.35.63 4.14C.333 4.905.131 5.775.072 7.053.012 8.333 0 8.74 0 12s.015 3.667.072 4.947c.06 1.277.261 2.148.558 2.913.306.788.717 1.459 1.384 2.126.667.666 1.336 1.079 2.126 1.384.766.296 1.636.499 2.913.558C8.333 23.988 8.74 24 12 24s3.667-.015 4.947-.072c1.277-.06 2.148-.262 2.913-.558.788-.306 1.459-.718 2.126-1.384.666-.667 1.079-1.335 1.384-2.126.296-.765.499-1.636.558-2.913.06-1.28.072-1.687.072-4.947s-.015-3.667-.072-4.947c-.06-1.277-.262-2.149-.558-2.913-.306-.789-.718-1.459-1.384-2.126C21.319 1.347 20.651.935 19.86.63c-.765-.297-1.636-.499-2.913-.558C15.667.012 15.26 0 12 0zm0 2.16c3.203 0 3.585.016 4.85.071 1.17.055 1.805.249 2.227.415.562.217.96.477 1.382.896.419.42.679.819.896 1.381.164.422.36 1.057.413 2.227.057 1.266.07 1.646.07 4.85s-.015 3.585-.074 4.85c-.061 1.17-.256 1.805-.421 2.227-.224.562-.479.96-.899 1.382-.419.419-.824.679-1.38.896-.42.164-1.065.36-2.235.413-1.274.057-1.649.07-4.859.07-3.211 0-3.586-.015-4.859-.074-1.171-.061-1.816-.256-2.236-.421-.569-.224-.96-.479-1.379-.899-.421-.419-.69-.824-.9-1.38-.165-.42-.359-1.065-.42-2.235-.045-1.26-.061-1.649-.061-4.844 0-3.196.016-3.586.061-4.861.061-1.17.255-1.814.42-2.234.21-.57.479-.96.9-1.381.419-.419.81-.689 1.379-.898.42-.166 1.051-.361 2.221-.421 1.275-.045 1.65-.06 4.859-.06l.045.03zm0 3.678c-3.405 0-6.162 2.76-6.162 6.162 0 3.405 2.76 6.162 6.162 6.162 3.405 0 6.162-2.76 6.162-6.162 0-3.405-2.76-6.162-6.162-6.162zM12 16c-2.21 0-4-1.79-4-4s1.79-4 4-4 4 1.79 4 4-1.79 4-4 4zm7.846-10.405c0 .795-.646 1.44-1.44 1.44-.795 0-1.44-.646-1.44-1.44 0-.794.646-1.439 1.44-1.439.793-.001 1.44.645 1.44 1.439z"/>
    </symbol>
</svg>
